<mxfile host="app.diagrams.net" modified="2024-04-06T21:16:48.372Z" agent="Mozilla/5.0 (Windows NT 10.0; Win64; x64) AppleWebKit/537.36 (KHTML, like Gecko) Chrome/123.0.0.0 Safari/537.36" etag="7WU61qZqAg4R6A1pfAHX" version="24.2.2" type="google">
  <diagram id="C5RBs43oDa-KdzZeNtuy" name="Page-1">
    <mxGraphModel grid="1" page="1" gridSize="10" guides="1" tooltips="1" connect="1" arrows="1" fold="1" pageScale="1" pageWidth="2339" pageHeight="3300" math="0" shadow="0">
      <root>
        <mxCell id="WIyWlLk6GJQsqaUBKTNV-0" />
        <mxCell id="WIyWlLk6GJQsqaUBKTNV-1" parent="WIyWlLk6GJQsqaUBKTNV-0" />
        <mxCell id="mLVLps4qV9vhMzDSU-DL-0" value="PolicyHolder" style="swimlane;fontStyle=1;align=center;verticalAlign=top;childLayout=stackLayout;horizontal=1;startSize=26;horizontalStack=0;resizeParent=1;resizeParentMax=0;resizeLast=0;collapsible=1;marginBottom=0;whiteSpace=wrap;html=1;" vertex="1" parent="WIyWlLk6GJQsqaUBKTNV-1">
          <mxGeometry x="900" y="680" width="260" height="110" as="geometry" />
        </mxCell>
        <mxCell id="mLVLps4qV9vhMzDSU-DL-1" value="-listOfDependent:List&amp;lt;Dependent&amp;gt;" style="text;strokeColor=none;fillColor=none;align=left;verticalAlign=top;spacingLeft=4;spacingRight=4;overflow=hidden;rotatable=0;points=[[0,0.5],[1,0.5]];portConstraint=eastwest;whiteSpace=wrap;html=1;" vertex="1" parent="mLVLps4qV9vhMzDSU-DL-0">
          <mxGeometry y="26" width="260" height="24" as="geometry" />
        </mxCell>
        <mxCell id="mLVLps4qV9vhMzDSU-DL-2" value="" style="line;strokeWidth=1;fillColor=none;align=left;verticalAlign=middle;spacingTop=-1;spacingLeft=3;spacingRight=3;rotatable=0;labelPosition=right;points=[];portConstraint=eastwest;strokeColor=inherit;" vertex="1" parent="mLVLps4qV9vhMzDSU-DL-0">
          <mxGeometry y="50" width="260" height="8" as="geometry" />
        </mxCell>
        <mxCell id="mLVLps4qV9vhMzDSU-DL-3" value="+ addDependent(Dependent): boolean&lt;div&gt;+ deleteDependent(Dependent): boolean&lt;br&gt;&lt;/div&gt;" style="text;strokeColor=none;fillColor=none;align=left;verticalAlign=top;spacingLeft=4;spacingRight=4;overflow=hidden;rotatable=0;points=[[0,0.5],[1,0.5]];portConstraint=eastwest;whiteSpace=wrap;html=1;" vertex="1" parent="mLVLps4qV9vhMzDSU-DL-0">
          <mxGeometry y="58" width="260" height="52" as="geometry" />
        </mxCell>
        <mxCell id="mLVLps4qV9vhMzDSU-DL-5" value="&lt;p style=&quot;margin:0px;margin-top:4px;text-align:center;&quot;&gt;&lt;i&gt;&amp;lt;&amp;lt;Abstract&amp;gt;&amp;gt;&lt;/i&gt;&lt;br&gt;&lt;b&gt;Customer&lt;/b&gt;&lt;/p&gt;&lt;hr size=&quot;1&quot; style=&quot;border-style:solid;&quot;&gt;&lt;p style=&quot;margin:0px;margin-left:4px;&quot;&gt;- idCus: String&lt;br&gt;- fullNameCus: String&lt;/p&gt;&lt;p style=&quot;margin:0px;margin-left:4px;&quot;&gt;- insuranceCard: InsuranceCard&lt;/p&gt;&lt;p style=&quot;margin:0px;margin-left:4px;&quot;&gt;- listOfClaims: List&amp;lt;Claim&amp;gt;&amp;nbsp;&amp;nbsp;&lt;/p&gt;&lt;hr size=&quot;1&quot; style=&quot;border-style:solid;&quot;&gt;&lt;p style=&quot;margin:0px;margin-left:4px;&quot;&gt;+ Customer()&lt;br&gt;+ Customer(String,String)&lt;/p&gt;&lt;p style=&quot;margin:0px;margin-left:4px;&quot;&gt;+ setInsuranceCard(InsuranceCard): boolean&lt;/p&gt;&lt;p style=&quot;margin:0px;margin-left:4px;&quot;&gt;+ addClaim(Claim):boolean&lt;/p&gt;&lt;p style=&quot;margin:0px;margin-left:4px;&quot;&gt;+ deleteClaim(Claim): boolean&lt;/p&gt;&lt;p style=&quot;margin:0px;margin-left:4px;&quot;&gt;+ displayClaim(): void&lt;/p&gt;" style="verticalAlign=top;align=left;overflow=fill;html=1;whiteSpace=wrap;" vertex="1" parent="WIyWlLk6GJQsqaUBKTNV-1">
          <mxGeometry x="720" y="400" width="260" height="210" as="geometry" />
        </mxCell>
        <mxCell id="mLVLps4qV9vhMzDSU-DL-29" value="Dependent" style="swimlane;fontStyle=1;align=center;verticalAlign=top;childLayout=stackLayout;horizontal=1;startSize=30;horizontalStack=0;resizeParent=1;resizeParentMax=0;resizeLast=0;collapsible=1;marginBottom=0;whiteSpace=wrap;html=1;" vertex="1" parent="WIyWlLk6GJQsqaUBKTNV-1">
          <mxGeometry x="550" y="680" width="160" height="90" as="geometry" />
        </mxCell>
        <mxCell id="mLVLps4qV9vhMzDSU-DL-30" value="-isDepended: boolean" style="text;strokeColor=none;fillColor=none;align=left;verticalAlign=top;spacingLeft=4;spacingRight=4;overflow=hidden;rotatable=0;points=[[0,0.5],[1,0.5]];portConstraint=eastwest;whiteSpace=wrap;html=1;" vertex="1" parent="mLVLps4qV9vhMzDSU-DL-29">
          <mxGeometry y="30" width="160" height="26" as="geometry" />
        </mxCell>
        <mxCell id="mLVLps4qV9vhMzDSU-DL-31" value="" style="line;strokeWidth=1;fillColor=none;align=left;verticalAlign=middle;spacingTop=-1;spacingLeft=3;spacingRight=3;rotatable=0;labelPosition=right;points=[];portConstraint=eastwest;strokeColor=inherit;" vertex="1" parent="mLVLps4qV9vhMzDSU-DL-29">
          <mxGeometry y="56" width="160" height="8" as="geometry" />
        </mxCell>
        <mxCell id="mLVLps4qV9vhMzDSU-DL-32" value="+setDepeded(boolean):void&amp;nbsp;" style="text;strokeColor=none;fillColor=none;align=left;verticalAlign=top;spacingLeft=4;spacingRight=4;overflow=hidden;rotatable=0;points=[[0,0.5],[1,0.5]];portConstraint=eastwest;whiteSpace=wrap;html=1;" vertex="1" parent="mLVLps4qV9vhMzDSU-DL-29">
          <mxGeometry y="64" width="160" height="26" as="geometry" />
        </mxCell>
        <mxCell id="mLVLps4qV9vhMzDSU-DL-33" value="Extends" style="endArrow=block;endSize=16;endFill=0;html=1;rounded=0;exitX=0.5;exitY=0;exitDx=0;exitDy=0;entryX=0.424;entryY=1.001;entryDx=0;entryDy=0;entryPerimeter=0;" edge="1" parent="WIyWlLk6GJQsqaUBKTNV-1" source="mLVLps4qV9vhMzDSU-DL-29" target="mLVLps4qV9vhMzDSU-DL-5">
          <mxGeometry width="160" relative="1" as="geometry">
            <mxPoint x="840" y="670" as="sourcePoint" />
            <mxPoint x="1000" y="670" as="targetPoint" />
          </mxGeometry>
        </mxCell>
        <mxCell id="mLVLps4qV9vhMzDSU-DL-34" value="Extends" style="endArrow=block;endSize=16;endFill=0;html=1;rounded=0;entryX=0.424;entryY=1.001;entryDx=0;entryDy=0;entryPerimeter=0;" edge="1" parent="WIyWlLk6GJQsqaUBKTNV-1" source="mLVLps4qV9vhMzDSU-DL-0">
          <mxGeometry width="160" relative="1" as="geometry">
            <mxPoint x="1015" y="670" as="sourcePoint" />
            <mxPoint x="850" y="610" as="targetPoint" />
          </mxGeometry>
        </mxCell>
        <mxCell id="mLVLps4qV9vhMzDSU-DL-35" value="" style="endArrow=open;html=1;endSize=12;startArrow=diamondThin;startSize=14;startFill=0;edgeStyle=orthogonalEdgeStyle;rounded=0;entryX=0;entryY=0.5;entryDx=0;entryDy=0;exitX=1;exitY=0.5;exitDx=0;exitDy=0;" edge="1" parent="WIyWlLk6GJQsqaUBKTNV-1" source="mLVLps4qV9vhMzDSU-DL-30" target="mLVLps4qV9vhMzDSU-DL-1">
          <mxGeometry relative="1" as="geometry">
            <mxPoint x="840" y="670" as="sourcePoint" />
            <mxPoint x="1000" y="670" as="targetPoint" />
          </mxGeometry>
        </mxCell>
        <mxCell id="mLVLps4qV9vhMzDSU-DL-36" value="0..n" style="edgeLabel;resizable=0;html=1;align=left;verticalAlign=top;" connectable="0" vertex="1" parent="mLVLps4qV9vhMzDSU-DL-35">
          <mxGeometry x="-1" relative="1" as="geometry" />
        </mxCell>
        <mxCell id="mLVLps4qV9vhMzDSU-DL-37" value="1" style="edgeLabel;resizable=0;html=1;align=right;verticalAlign=top;" connectable="0" vertex="1" parent="mLVLps4qV9vhMzDSU-DL-35">
          <mxGeometry x="1" relative="1" as="geometry" />
        </mxCell>
        <mxCell id="mLVLps4qV9vhMzDSU-DL-38" value="InsuranceCard" style="swimlane;fontStyle=1;align=center;verticalAlign=top;childLayout=stackLayout;horizontal=1;startSize=26;horizontalStack=0;resizeParent=1;resizeParentMax=0;resizeLast=0;collapsible=1;marginBottom=0;whiteSpace=wrap;html=1;" vertex="1" parent="WIyWlLk6GJQsqaUBKTNV-1">
          <mxGeometry x="1060" y="416" width="240" height="178" as="geometry" />
        </mxCell>
        <mxCell id="mLVLps4qV9vhMzDSU-DL-39" value="-cardNum: String&lt;div&gt;-cardHolder: Customer&lt;/div&gt;&lt;div&gt;-policyOwner: PolicyOwner&lt;/div&gt;&lt;div&gt;-expirationDate:LocalDate&lt;/div&gt;" style="text;strokeColor=none;fillColor=none;align=left;verticalAlign=top;spacingLeft=4;spacingRight=4;overflow=hidden;rotatable=0;points=[[0,0.5],[1,0.5]];portConstraint=eastwest;whiteSpace=wrap;html=1;" vertex="1" parent="mLVLps4qV9vhMzDSU-DL-38">
          <mxGeometry y="26" width="240" height="74" as="geometry" />
        </mxCell>
        <mxCell id="mLVLps4qV9vhMzDSU-DL-40" value="" style="line;strokeWidth=1;fillColor=none;align=left;verticalAlign=middle;spacingTop=-1;spacingLeft=3;spacingRight=3;rotatable=0;labelPosition=right;points=[];portConstraint=eastwest;strokeColor=inherit;" vertex="1" parent="mLVLps4qV9vhMzDSU-DL-38">
          <mxGeometry y="100" width="240" height="8" as="geometry" />
        </mxCell>
        <mxCell id="mLVLps4qV9vhMzDSU-DL-41" value="&lt;div&gt;+InsuranceCard()&lt;/div&gt;&lt;div&gt;+InsuranceCard(String)&lt;/div&gt;+setExpirationDate(String):boolean&lt;div&gt;+setPolicyOwner(PolicyOwner):boolean&lt;/div&gt;" style="text;strokeColor=none;fillColor=none;align=left;verticalAlign=top;spacingLeft=4;spacingRight=4;overflow=hidden;rotatable=0;points=[[0,0.5],[1,0.5]];portConstraint=eastwest;whiteSpace=wrap;html=1;" vertex="1" parent="mLVLps4qV9vhMzDSU-DL-38">
          <mxGeometry y="108" width="240" height="70" as="geometry" />
        </mxCell>
        <mxCell id="mLVLps4qV9vhMzDSU-DL-43" value="" style="endArrow=diamondThin;endFill=0;endSize=24;html=1;rounded=0;exitX=-0.008;exitY=0.911;exitDx=0;exitDy=0;exitPerimeter=0;entryX=0.535;entryY=0.011;entryDx=0;entryDy=0;entryPerimeter=0;" edge="1" parent="WIyWlLk6GJQsqaUBKTNV-1" source="mLVLps4qV9vhMzDSU-DL-39" target="mLVLps4qV9vhMzDSU-DL-0">
          <mxGeometry width="160" relative="1" as="geometry">
            <mxPoint x="990" y="600" as="sourcePoint" />
            <mxPoint x="1170" y="540" as="targetPoint" />
          </mxGeometry>
        </mxCell>
        <mxCell id="mLVLps4qV9vhMzDSU-DL-44" value="1" style="text;html=1;align=center;verticalAlign=middle;resizable=0;points=[];autosize=1;strokeColor=none;fillColor=none;" vertex="1" parent="WIyWlLk6GJQsqaUBKTNV-1">
          <mxGeometry x="1040" y="640" width="30" height="30" as="geometry" />
        </mxCell>
        <mxCell id="mLVLps4qV9vhMzDSU-DL-45" value="1" style="text;html=1;align=center;verticalAlign=middle;resizable=0;points=[];autosize=1;strokeColor=none;fillColor=none;" vertex="1" parent="WIyWlLk6GJQsqaUBKTNV-1">
          <mxGeometry x="1030" y="500" width="30" height="30" as="geometry" />
        </mxCell>
        <mxCell id="mLVLps4qV9vhMzDSU-DL-46" value="PolicyOwner" style="swimlane;fontStyle=1;align=center;verticalAlign=top;childLayout=stackLayout;horizontal=1;startSize=26;horizontalStack=0;resizeParent=1;resizeParentMax=0;resizeLast=0;collapsible=1;marginBottom=0;whiteSpace=wrap;html=1;" vertex="1" parent="WIyWlLk6GJQsqaUBKTNV-1">
          <mxGeometry x="1065" y="180" width="230" height="120" as="geometry">
            <mxRectangle x="1190" y="70" width="110" height="30" as="alternateBounds" />
          </mxGeometry>
        </mxCell>
        <mxCell id="mLVLps4qV9vhMzDSU-DL-47" value="-fullNamePolicyOwner: String&lt;div&gt;-location:String&lt;/div&gt;&lt;div&gt;&lt;br&gt;&lt;/div&gt;" style="text;strokeColor=none;fillColor=none;align=left;verticalAlign=top;spacingLeft=4;spacingRight=4;overflow=hidden;rotatable=0;points=[[0,0.5],[1,0.5]];portConstraint=eastwest;whiteSpace=wrap;html=1;" vertex="1" parent="mLVLps4qV9vhMzDSU-DL-46">
          <mxGeometry y="26" width="230" height="44" as="geometry" />
        </mxCell>
        <mxCell id="mLVLps4qV9vhMzDSU-DL-48" value="" style="line;strokeWidth=1;fillColor=none;align=left;verticalAlign=middle;spacingTop=-1;spacingLeft=3;spacingRight=3;rotatable=0;labelPosition=right;points=[];portConstraint=eastwest;strokeColor=inherit;" vertex="1" parent="mLVLps4qV9vhMzDSU-DL-46">
          <mxGeometry y="70" width="230" height="8" as="geometry" />
        </mxCell>
        <mxCell id="mLVLps4qV9vhMzDSU-DL-49" value="&lt;div&gt;+PolicyOwner()&lt;/div&gt;+PolicyOwner(String String)&lt;div&gt;&lt;br&gt;&lt;/div&gt;" style="text;strokeColor=none;fillColor=none;align=left;verticalAlign=top;spacingLeft=4;spacingRight=4;overflow=hidden;rotatable=0;points=[[0,0.5],[1,0.5]];portConstraint=eastwest;whiteSpace=wrap;html=1;" vertex="1" parent="mLVLps4qV9vhMzDSU-DL-46">
          <mxGeometry y="78" width="230" height="42" as="geometry" />
        </mxCell>
        <mxCell id="mLVLps4qV9vhMzDSU-DL-50" value="" style="endArrow=open;endFill=1;endSize=12;html=1;rounded=0;exitX=0.468;exitY=1.108;exitDx=0;exitDy=0;exitPerimeter=0;entryX=0.5;entryY=0;entryDx=0;entryDy=0;" edge="1" parent="WIyWlLk6GJQsqaUBKTNV-1" source="mLVLps4qV9vhMzDSU-DL-49" target="mLVLps4qV9vhMzDSU-DL-38">
          <mxGeometry width="160" relative="1" as="geometry">
            <mxPoint x="840" y="330" as="sourcePoint" />
            <mxPoint x="1000" y="330" as="targetPoint" />
          </mxGeometry>
        </mxCell>
        <mxCell id="mLVLps4qV9vhMzDSU-DL-52" value="Claim" style="swimlane;fontStyle=1;align=center;verticalAlign=top;childLayout=stackLayout;horizontal=1;startSize=26;horizontalStack=0;resizeParent=1;resizeParentMax=0;resizeLast=0;collapsible=1;marginBottom=0;whiteSpace=wrap;html=1;" vertex="1" parent="WIyWlLk6GJQsqaUBKTNV-1">
          <mxGeometry x="730" y="-10" width="200" height="320" as="geometry" />
        </mxCell>
        <mxCell id="mLVLps4qV9vhMzDSU-DL-53" value="-idClaim:String&lt;div&gt;-claimDate:LocalDate&lt;/div&gt;&lt;div&gt;-cardNumber:String&lt;/div&gt;&lt;div&gt;-insuredPerson:Customer&lt;/div&gt;&lt;div&gt;-examDate: LocalDate&lt;/div&gt;&lt;div&gt;-listOfDoc:String&lt;/div&gt;&lt;div&gt;-claimAmount:double&lt;/div&gt;&lt;div&gt;-status:Status&lt;/div&gt;&lt;div&gt;-infoBank:Bank&lt;/div&gt;&lt;div&gt;&lt;br&gt;&lt;/div&gt;" style="text;strokeColor=none;fillColor=none;align=left;verticalAlign=top;spacingLeft=4;spacingRight=4;overflow=hidden;rotatable=0;points=[[0,0.5],[1,0.5]];portConstraint=eastwest;whiteSpace=wrap;html=1;" vertex="1" parent="mLVLps4qV9vhMzDSU-DL-52">
          <mxGeometry y="26" width="200" height="144" as="geometry" />
        </mxCell>
        <mxCell id="mLVLps4qV9vhMzDSU-DL-54" value="" style="line;strokeWidth=1;fillColor=none;align=left;verticalAlign=middle;spacingTop=-1;spacingLeft=3;spacingRight=3;rotatable=0;labelPosition=right;points=[];portConstraint=eastwest;strokeColor=inherit;" vertex="1" parent="mLVLps4qV9vhMzDSU-DL-52">
          <mxGeometry y="170" width="200" height="8" as="geometry" />
        </mxCell>
        <mxCell id="mLVLps4qV9vhMzDSU-DL-55" value="&lt;div&gt;+Claim()&lt;/div&gt;+Claim(String, double)&lt;div&gt;+setStatus():void&lt;/div&gt;&lt;div&gt;+setInsuredPerson(Customer): obj&lt;/div&gt;&lt;div&gt;+getListOfDoc():String&lt;/div&gt;&lt;div&gt;+setClaimDate():boolean&lt;/div&gt;&lt;div&gt;+setInfoBank():boolean&lt;/div&gt;&lt;div&gt;+setCardNum():void&lt;/div&gt;" style="text;strokeColor=none;fillColor=none;align=left;verticalAlign=top;spacingLeft=4;spacingRight=4;overflow=hidden;rotatable=0;points=[[0,0.5],[1,0.5]];portConstraint=eastwest;whiteSpace=wrap;html=1;" vertex="1" parent="mLVLps4qV9vhMzDSU-DL-52">
          <mxGeometry y="178" width="200" height="142" as="geometry" />
        </mxCell>
        <mxCell id="mLVLps4qV9vhMzDSU-DL-56" value="" style="endArrow=diamondThin;endFill=1;endSize=24;html=1;rounded=0;exitX=0.474;exitY=1.001;exitDx=0;exitDy=0;exitPerimeter=0;" edge="1" parent="WIyWlLk6GJQsqaUBKTNV-1" source="mLVLps4qV9vhMzDSU-DL-55" target="mLVLps4qV9vhMzDSU-DL-5">
          <mxGeometry width="160" relative="1" as="geometry">
            <mxPoint x="840" y="330" as="sourcePoint" />
            <mxPoint x="1000" y="330" as="targetPoint" />
          </mxGeometry>
        </mxCell>
        <mxCell id="mLVLps4qV9vhMzDSU-DL-58" value="&lt;div style=&quot;text-align: start;&quot;&gt;&lt;br&gt;&lt;/div&gt;" style="text;html=1;align=center;verticalAlign=middle;resizable=0;points=[];autosize=1;strokeColor=none;fillColor=none;" vertex="1" parent="WIyWlLk6GJQsqaUBKTNV-1">
          <mxGeometry x="790" y="248" width="20" height="30" as="geometry" />
        </mxCell>
        <mxCell id="mLVLps4qV9vhMzDSU-DL-59" value="1" style="text;html=1;align=center;verticalAlign=middle;resizable=0;points=[];autosize=1;strokeColor=none;fillColor=none;" vertex="1" parent="WIyWlLk6GJQsqaUBKTNV-1">
          <mxGeometry x="795" y="368" width="30" height="30" as="geometry" />
        </mxCell>
        <mxCell id="mLVLps4qV9vhMzDSU-DL-60" value="1..*" style="text;html=1;align=center;verticalAlign=middle;resizable=0;points=[];autosize=1;strokeColor=none;fillColor=none;" vertex="1" parent="WIyWlLk6GJQsqaUBKTNV-1">
          <mxGeometry x="785" y="310" width="40" height="30" as="geometry" />
        </mxCell>
        <mxCell id="mLVLps4qV9vhMzDSU-DL-63" value="&lt;p style=&quot;margin:0px;margin-top:4px;text-align:center;&quot;&gt;&lt;i&gt;&amp;lt;&amp;lt;Enum&amp;gt;&amp;gt;&lt;/i&gt;&lt;br&gt;&lt;b&gt;Status&lt;/b&gt;&lt;/p&gt;&lt;hr size=&quot;1&quot; style=&quot;border-style:solid;&quot;&gt;&lt;p style=&quot;margin:0px;margin-left:4px;&quot;&gt;NEW&lt;/p&gt;&lt;p style=&quot;margin:0px;margin-left:4px;&quot;&gt;PROCESSING&lt;/p&gt;&lt;p style=&quot;margin:0px;margin-left:4px;&quot;&gt;DONE&lt;br&gt;&lt;br&gt;&lt;/p&gt;" style="verticalAlign=top;align=left;overflow=fill;html=1;whiteSpace=wrap;" vertex="1" parent="WIyWlLk6GJQsqaUBKTNV-1">
          <mxGeometry x="500" y="30" width="130" height="90" as="geometry" />
        </mxCell>
        <mxCell id="mLVLps4qV9vhMzDSU-DL-66" value="" style="endArrow=open;endFill=1;endSize=12;html=1;rounded=0;exitX=1;exitY=0.75;exitDx=0;exitDy=0;entryX=0.003;entryY=0.623;entryDx=0;entryDy=0;entryPerimeter=0;" edge="1" parent="WIyWlLk6GJQsqaUBKTNV-1" source="mLVLps4qV9vhMzDSU-DL-63" target="mLVLps4qV9vhMzDSU-DL-53">
          <mxGeometry width="160" relative="1" as="geometry">
            <mxPoint x="1388" y="315" as="sourcePoint" />
            <mxPoint x="1390" y="410" as="targetPoint" />
          </mxGeometry>
        </mxCell>
        <mxCell id="mLVLps4qV9vhMzDSU-DL-67" value="Bank" style="swimlane;fontStyle=1;align=center;verticalAlign=top;childLayout=stackLayout;horizontal=1;startSize=26;horizontalStack=0;resizeParent=1;resizeParentMax=0;resizeLast=0;collapsible=1;marginBottom=0;whiteSpace=wrap;html=1;" vertex="1" parent="WIyWlLk6GJQsqaUBKTNV-1">
          <mxGeometry x="490" y="160" width="160" height="124" as="geometry" />
        </mxCell>
        <mxCell id="mLVLps4qV9vhMzDSU-DL-68" value="-nameBank:String&lt;div&gt;-nameOwner:String&lt;/div&gt;&lt;div&gt;-accountNumber:String&lt;/div&gt;" style="text;strokeColor=none;fillColor=none;align=left;verticalAlign=top;spacingLeft=4;spacingRight=4;overflow=hidden;rotatable=0;points=[[0,0.5],[1,0.5]];portConstraint=eastwest;whiteSpace=wrap;html=1;" vertex="1" parent="mLVLps4qV9vhMzDSU-DL-67">
          <mxGeometry y="26" width="160" height="64" as="geometry" />
        </mxCell>
        <mxCell id="mLVLps4qV9vhMzDSU-DL-69" value="" style="line;strokeWidth=1;fillColor=none;align=left;verticalAlign=middle;spacingTop=-1;spacingLeft=3;spacingRight=3;rotatable=0;labelPosition=right;points=[];portConstraint=eastwest;strokeColor=inherit;" vertex="1" parent="mLVLps4qV9vhMzDSU-DL-67">
          <mxGeometry y="90" width="160" height="8" as="geometry" />
        </mxCell>
        <mxCell id="mLVLps4qV9vhMzDSU-DL-70" value="+Bank(String,String,String)" style="text;strokeColor=none;fillColor=none;align=left;verticalAlign=top;spacingLeft=4;spacingRight=4;overflow=hidden;rotatable=0;points=[[0,0.5],[1,0.5]];portConstraint=eastwest;whiteSpace=wrap;html=1;" vertex="1" parent="mLVLps4qV9vhMzDSU-DL-67">
          <mxGeometry y="98" width="160" height="26" as="geometry" />
        </mxCell>
        <mxCell id="mLVLps4qV9vhMzDSU-DL-71" value="" style="endArrow=open;endFill=1;endSize=12;html=1;rounded=0;exitX=1;exitY=0.5;exitDx=0;exitDy=0;entryX=0.01;entryY=0.752;entryDx=0;entryDy=0;entryPerimeter=0;" edge="1" parent="WIyWlLk6GJQsqaUBKTNV-1" source="mLVLps4qV9vhMzDSU-DL-68" target="mLVLps4qV9vhMzDSU-DL-53">
          <mxGeometry width="160" relative="1" as="geometry">
            <mxPoint x="540" y="108" as="sourcePoint" />
            <mxPoint x="720" y="130" as="targetPoint" />
          </mxGeometry>
        </mxCell>
        <mxCell id="mLVLps4qV9vhMzDSU-DL-72" value="SystemManage" style="swimlane;fontStyle=1;align=center;verticalAlign=top;childLayout=stackLayout;horizontal=1;startSize=26;horizontalStack=0;resizeParent=1;resizeParentMax=0;resizeLast=0;collapsible=1;marginBottom=0;whiteSpace=wrap;html=1;" vertex="1" parent="WIyWlLk6GJQsqaUBKTNV-1">
          <mxGeometry x="1370" y="220" width="500" height="260" as="geometry" />
        </mxCell>
        <mxCell id="mLVLps4qV9vhMzDSU-DL-73" value="-scanner:Scanner" style="text;strokeColor=none;fillColor=none;align=left;verticalAlign=top;spacingLeft=4;spacingRight=4;overflow=hidden;rotatable=0;points=[[0,0.5],[1,0.5]];portConstraint=eastwest;whiteSpace=wrap;html=1;" vertex="1" parent="mLVLps4qV9vhMzDSU-DL-72">
          <mxGeometry y="26" width="500" height="26" as="geometry" />
        </mxCell>
        <mxCell id="mLVLps4qV9vhMzDSU-DL-74" value="" style="line;strokeWidth=1;fillColor=none;align=left;verticalAlign=middle;spacingTop=-1;spacingLeft=3;spacingRight=3;rotatable=0;labelPosition=right;points=[];portConstraint=eastwest;strokeColor=inherit;" vertex="1" parent="mLVLps4qV9vhMzDSU-DL-72">
          <mxGeometry y="52" width="500" height="8" as="geometry" />
        </mxCell>
        <mxCell id="mLVLps4qV9vhMzDSU-DL-75" value="+viewAllPolicyHolder(List&amp;lt;PolicyHolder&amp;gt;):void&lt;div&gt;+viewAllDependent(List&amp;lt;Dependent&amp;gt;):void&lt;/div&gt;&lt;div&gt;+viewAllInsuranceCard(List&amp;lt;InsuranceCard&amp;gt;):void&lt;/div&gt;&lt;div&gt;+addDependentToPolicyHolder(List&amp;lt;PolicyHolder&amp;gt;,List&amp;lt;Dependent&amp;gt;):void&lt;/div&gt;&lt;div&gt;+deleteDependentToPolicyHolder(List&amp;lt;PolicyHolder&amp;gt;,List&amp;lt;Dependent&amp;gt;):void&lt;/div&gt;&lt;div&gt;+addInsuranceCardToCustomer(List&amp;lt;PolicyHolder&amp;gt;, List&amp;lt;InsuranceCard&amp;gt;):void&lt;/div&gt;&lt;div&gt;+setPolicyOwnerToInsuranceCard(List&amp;lt;InsuranceCard&amp;gt;, PolicyOwner): void&lt;/div&gt;&lt;div&gt;+setExpirationDate(List&amp;lt;InsuranceCard&amp;gt;):void&lt;/div&gt;&lt;div&gt;+addClaimToCustomer(List&amp;lt;PolicyHolder&amp;gt;, List&amp;lt;Dependent&amp;gt;, List&amp;lt;Claim&amp;gt;):void&lt;/div&gt;&lt;div&gt;+deleteClaimFromPolicyHolder(List&amp;lt;PolicyHolder&amp;gt; ,List&amp;lt;Dependent&amp;gt;, List&amp;lt;Claim&amp;gt;):void&lt;/div&gt;&lt;div&gt;+updateClaim(List&amp;lt;Claim&amp;gt;):void&lt;/div&gt;&lt;div&gt;+getAllClaims(List&amp;lt;Claim&amp;gt;):void&lt;/div&gt;&lt;div&gt;+getOneClaim(List&amp;lt;Claim&amp;gt;):void&lt;/div&gt;" style="text;strokeColor=none;fillColor=none;align=left;verticalAlign=top;spacingLeft=4;spacingRight=4;overflow=hidden;rotatable=0;points=[[0,0.5],[1,0.5]];portConstraint=eastwest;whiteSpace=wrap;html=1;" vertex="1" parent="mLVLps4qV9vhMzDSU-DL-72">
          <mxGeometry y="60" width="500" height="200" as="geometry" />
        </mxCell>
        <mxCell id="mLVLps4qV9vhMzDSU-DL-76" value="Menu" style="swimlane;fontStyle=1;align=center;verticalAlign=top;childLayout=stackLayout;horizontal=1;startSize=30;horizontalStack=0;resizeParent=1;resizeParentMax=0;resizeLast=0;collapsible=1;marginBottom=0;whiteSpace=wrap;html=1;" vertex="1" parent="WIyWlLk6GJQsqaUBKTNV-1">
          <mxGeometry x="1950" y="318" width="160" height="64" as="geometry" />
        </mxCell>
        <mxCell id="mLVLps4qV9vhMzDSU-DL-78" value="" style="line;strokeWidth=1;fillColor=none;align=left;verticalAlign=middle;spacingTop=-1;spacingLeft=3;spacingRight=3;rotatable=0;labelPosition=right;points=[];portConstraint=eastwest;strokeColor=inherit;" vertex="1" parent="mLVLps4qV9vhMzDSU-DL-76">
          <mxGeometry y="30" width="160" height="8" as="geometry" />
        </mxCell>
        <mxCell id="mLVLps4qV9vhMzDSU-DL-79" value="+menu():void" style="text;strokeColor=none;fillColor=none;align=left;verticalAlign=top;spacingLeft=4;spacingRight=4;overflow=hidden;rotatable=0;points=[[0,0.5],[1,0.5]];portConstraint=eastwest;whiteSpace=wrap;html=1;" vertex="1" parent="mLVLps4qV9vhMzDSU-DL-76">
          <mxGeometry y="38" width="160" height="26" as="geometry" />
        </mxCell>
        <mxCell id="mLVLps4qV9vhMzDSU-DL-80" value="Use" style="endArrow=open;endSize=12;dashed=1;html=1;rounded=0;exitX=0.001;exitY=0.395;exitDx=0;exitDy=0;exitPerimeter=0;entryX=1.009;entryY=0.992;entryDx=0;entryDy=0;entryPerimeter=0;" edge="1" parent="WIyWlLk6GJQsqaUBKTNV-1" source="mLVLps4qV9vhMzDSU-DL-75" target="mLVLps4qV9vhMzDSU-DL-47">
          <mxGeometry width="160" relative="1" as="geometry">
            <mxPoint x="1350" y="460" as="sourcePoint" />
            <mxPoint x="1510" y="460" as="targetPoint" />
          </mxGeometry>
        </mxCell>
        <mxCell id="mLVLps4qV9vhMzDSU-DL-81" value="Use" style="endArrow=open;endSize=12;dashed=1;html=1;rounded=0;exitX=0.001;exitY=0.582;exitDx=0;exitDy=0;exitPerimeter=0;entryX=1;entryY=0.5;entryDx=0;entryDy=0;" edge="1" parent="WIyWlLk6GJQsqaUBKTNV-1" source="mLVLps4qV9vhMzDSU-DL-75" target="mLVLps4qV9vhMzDSU-DL-39">
          <mxGeometry width="160" relative="1" as="geometry">
            <mxPoint x="1500" y="393" as="sourcePoint" />
            <mxPoint x="1362" y="260" as="targetPoint" />
          </mxGeometry>
        </mxCell>
        <mxCell id="mLVLps4qV9vhMzDSU-DL-82" value="Use" style="endArrow=open;endSize=12;dashed=1;html=1;rounded=0;entryX=1;entryY=0.5;entryDx=0;entryDy=0;exitX=0.105;exitY=1.028;exitDx=0;exitDy=0;exitPerimeter=0;" edge="1" parent="WIyWlLk6GJQsqaUBKTNV-1" source="mLVLps4qV9vhMzDSU-DL-75">
          <mxGeometry width="160" relative="1" as="geometry">
            <mxPoint x="1489.9999999999995" y="460.00000000000057" as="sourcePoint" />
            <mxPoint x="1158.12" y="753.6" as="targetPoint" />
            <Array as="points">
              <mxPoint x="1420" y="750" />
            </Array>
          </mxGeometry>
        </mxCell>
        <mxCell id="mLVLps4qV9vhMzDSU-DL-83" value="Use" style="endArrow=open;endSize=12;dashed=1;html=1;rounded=0;exitX=0.218;exitY=1.015;exitDx=0;exitDy=0;exitPerimeter=0;" edge="1" parent="WIyWlLk6GJQsqaUBKTNV-1" source="mLVLps4qV9vhMzDSU-DL-75">
          <mxGeometry width="160" relative="1" as="geometry">
            <mxPoint x="1500" y="500" as="sourcePoint" />
            <mxPoint x="630" y="770" as="targetPoint" />
            <Array as="points">
              <mxPoint x="1479" y="840" />
              <mxPoint x="630" y="840" />
            </Array>
          </mxGeometry>
        </mxCell>
        <mxCell id="mLVLps4qV9vhMzDSU-DL-84" value="Use" style="endArrow=open;endSize=12;dashed=1;html=1;rounded=0;exitX=0.468;exitY=-0.015;exitDx=0;exitDy=0;exitPerimeter=0;entryX=1.023;entryY=0.289;entryDx=0;entryDy=0;entryPerimeter=0;" edge="1" parent="WIyWlLk6GJQsqaUBKTNV-1" source="mLVLps4qV9vhMzDSU-DL-72" target="mLVLps4qV9vhMzDSU-DL-53">
          <mxGeometry width="160" relative="1" as="geometry">
            <mxPoint x="1350" y="320" as="sourcePoint" />
            <mxPoint x="1510" y="320" as="targetPoint" />
            <Array as="points">
              <mxPoint x="1604" y="60" />
            </Array>
          </mxGeometry>
        </mxCell>
        <mxCell id="mLVLps4qV9vhMzDSU-DL-86" value="&lt;p style=&quot;margin:0px;margin-top:4px;text-align:center;&quot;&gt;&lt;i&gt;&amp;lt;&amp;lt;Interface&amp;gt;&amp;gt;&lt;/i&gt;&lt;br&gt;&lt;b&gt;ClaimProcessManager&lt;/b&gt;&lt;br&gt;&lt;/p&gt;&lt;div&gt;&lt;br&gt;&lt;/div&gt;&lt;hr size=&quot;1&quot; style=&quot;border-style:solid;&quot;&gt;&lt;p style=&quot;margin:0px;margin-left:4px;&quot;&gt;+&lt;span style=&quot;background-color: initial;&quot;&gt;addClaimToCustomer(List&amp;lt;PolicyHolder&amp;gt;, List&amp;lt;Dependent&amp;gt;, List&amp;lt;Claim&amp;gt;)&lt;/span&gt;&lt;/p&gt;&lt;p style=&quot;margin:0px;margin-left:4px;&quot;&gt;&lt;span style=&quot;background-color: initial;&quot;&gt;+&lt;/span&gt;&lt;span style=&quot;background-color: initial;&quot;&gt;updateClaim(List&amp;lt;Claim&amp;gt;)&lt;/span&gt;&lt;/p&gt;&lt;p style=&quot;margin:0px;margin-left:4px;&quot;&gt;&lt;span style=&quot;background-color: initial;&quot;&gt;+&lt;/span&gt;&lt;span style=&quot;background-color: initial;&quot;&gt;deleteClaimFromCustomer(List&amp;lt;PolicyHolder&amp;gt; ,List&amp;lt;Dependent&amp;gt;, List&amp;lt;Claim&amp;gt;)&lt;/span&gt;&lt;/p&gt;&lt;p style=&quot;margin:0px;margin-left:4px;&quot;&gt;&lt;span style=&quot;background-color: initial;&quot;&gt;+&lt;/span&gt;&lt;span style=&quot;background-color: initial;&quot;&gt;getAllClaims(List&amp;lt;Claim&amp;gt;)&lt;/span&gt;&lt;/p&gt;&lt;p style=&quot;margin:0px;margin-left:4px;&quot;&gt;+getOneClaim(List&amp;lt;Claim&amp;gt;)&lt;/p&gt;" style="verticalAlign=top;align=left;overflow=fill;html=1;whiteSpace=wrap;" vertex="1" parent="WIyWlLk6GJQsqaUBKTNV-1">
          <mxGeometry x="1730" y="40" width="440" height="140" as="geometry" />
        </mxCell>
        <mxCell id="mLVLps4qV9vhMzDSU-DL-87" value="" style="endArrow=block;dashed=1;endFill=0;endSize=12;html=1;rounded=0;exitX=0.5;exitY=0;exitDx=0;exitDy=0;" edge="1" parent="WIyWlLk6GJQsqaUBKTNV-1" source="mLVLps4qV9vhMzDSU-DL-72" target="mLVLps4qV9vhMzDSU-DL-86">
          <mxGeometry width="160" relative="1" as="geometry">
            <mxPoint x="1350" y="460" as="sourcePoint" />
            <mxPoint x="1510" y="460" as="targetPoint" />
          </mxGeometry>
        </mxCell>
        <mxCell id="mLVLps4qV9vhMzDSU-DL-88" value="DataLoader" style="swimlane;fontStyle=1;align=center;verticalAlign=top;childLayout=stackLayout;horizontal=1;startSize=26;horizontalStack=0;resizeParent=1;resizeParentMax=0;resizeLast=0;collapsible=1;marginBottom=0;whiteSpace=wrap;html=1;" vertex="1" parent="WIyWlLk6GJQsqaUBKTNV-1">
          <mxGeometry x="1530" y="570" width="220" height="110" as="geometry" />
        </mxCell>
        <mxCell id="mLVLps4qV9vhMzDSU-DL-89" value="-fileName:String" style="text;strokeColor=none;fillColor=none;align=left;verticalAlign=top;spacingLeft=4;spacingRight=4;overflow=hidden;rotatable=0;points=[[0,0.5],[1,0.5]];portConstraint=eastwest;whiteSpace=wrap;html=1;" vertex="1" parent="mLVLps4qV9vhMzDSU-DL-88">
          <mxGeometry y="26" width="220" height="26" as="geometry" />
        </mxCell>
        <mxCell id="mLVLps4qV9vhMzDSU-DL-90" value="" style="line;strokeWidth=1;fillColor=none;align=left;verticalAlign=middle;spacingTop=-1;spacingLeft=3;spacingRight=3;rotatable=0;labelPosition=right;points=[];portConstraint=eastwest;strokeColor=inherit;" vertex="1" parent="mLVLps4qV9vhMzDSU-DL-88">
          <mxGeometry y="52" width="220" height="8" as="geometry" />
        </mxCell>
        <mxCell id="mLVLps4qV9vhMzDSU-DL-91" value="+DataLoader(String)&lt;div&gt;+readDataFromFile(): List&amp;lt;String[]&amp;gt;&lt;/div&gt;" style="text;strokeColor=none;fillColor=none;align=left;verticalAlign=top;spacingLeft=4;spacingRight=4;overflow=hidden;rotatable=0;points=[[0,0.5],[1,0.5]];portConstraint=eastwest;whiteSpace=wrap;html=1;" vertex="1" parent="mLVLps4qV9vhMzDSU-DL-88">
          <mxGeometry y="60" width="220" height="50" as="geometry" />
        </mxCell>
        <mxCell id="mLVLps4qV9vhMzDSU-DL-92" value="LoadDatatoList" style="swimlane;fontStyle=1;align=center;verticalAlign=top;childLayout=stackLayout;horizontal=1;startSize=26;horizontalStack=0;resizeParent=1;resizeParentMax=0;resizeLast=0;collapsible=1;marginBottom=0;whiteSpace=wrap;html=1;" vertex="1" parent="WIyWlLk6GJQsqaUBKTNV-1">
          <mxGeometry x="1810" y="560" width="290" height="150" as="geometry" />
        </mxCell>
        <mxCell id="mLVLps4qV9vhMzDSU-DL-93" value="-dataLoader:DataLoader&lt;div&gt;-dataList:List&amp;lt;String[]&amp;gt;&lt;/div&gt;" style="text;strokeColor=none;fillColor=none;align=left;verticalAlign=top;spacingLeft=4;spacingRight=4;overflow=hidden;rotatable=0;points=[[0,0.5],[1,0.5]];portConstraint=eastwest;whiteSpace=wrap;html=1;" vertex="1" parent="mLVLps4qV9vhMzDSU-DL-92">
          <mxGeometry y="26" width="290" height="26" as="geometry" />
        </mxCell>
        <mxCell id="mLVLps4qV9vhMzDSU-DL-94" value="" style="line;strokeWidth=1;fillColor=none;align=left;verticalAlign=middle;spacingTop=-1;spacingLeft=3;spacingRight=3;rotatable=0;labelPosition=right;points=[];portConstraint=eastwest;strokeColor=inherit;" vertex="1" parent="mLVLps4qV9vhMzDSU-DL-92">
          <mxGeometry y="52" width="290" height="8" as="geometry" />
        </mxCell>
        <mxCell id="mLVLps4qV9vhMzDSU-DL-95" value="+loadDataToPolicyHolder():List&amp;lt;PolicyHolder&amp;gt;&lt;div&gt;+&lt;span style=&quot;background-color: initial;&quot;&gt;loadDataToDependent():List&amp;lt;Dependent&amp;gt;&lt;/span&gt;&lt;/div&gt;&lt;div&gt;&lt;span style=&quot;background-color: initial;&quot;&gt;+&lt;/span&gt;&lt;span style=&quot;background-color: initial;&quot;&gt;loadDataToInsuranceCard():List&amp;lt;InsuraceCard&amp;gt;&lt;/span&gt;&lt;/div&gt;&lt;div&gt;+loadDataToClaim():List&amp;lt;Claim&amp;gt;&lt;span style=&quot;background-color: initial;&quot;&gt;&lt;br&gt;&lt;/span&gt;&lt;/div&gt;&lt;div&gt;+&lt;span style=&quot;background-color: initial;&quot;&gt;loadDataToPolicyOwner():List&amp;lt;PolicyOwner&amp;gt;&lt;/span&gt;&lt;/div&gt;" style="text;strokeColor=none;fillColor=none;align=left;verticalAlign=top;spacingLeft=4;spacingRight=4;overflow=hidden;rotatable=0;points=[[0,0.5],[1,0.5]];portConstraint=eastwest;whiteSpace=wrap;html=1;" vertex="1" parent="mLVLps4qV9vhMzDSU-DL-92">
          <mxGeometry y="60" width="290" height="90" as="geometry" />
        </mxCell>
        <mxCell id="mLVLps4qV9vhMzDSU-DL-96" value="" style="endArrow=open;endFill=1;endSize=12;html=1;rounded=0;exitX=1.021;exitY=-0.06;exitDx=0;exitDy=0;exitPerimeter=0;entryX=0.021;entryY=0.625;entryDx=0;entryDy=0;entryPerimeter=0;" edge="1" parent="WIyWlLk6GJQsqaUBKTNV-1" source="mLVLps4qV9vhMzDSU-DL-91" target="mLVLps4qV9vhMzDSU-DL-94">
          <mxGeometry width="160" relative="1" as="geometry">
            <mxPoint x="1350" y="460" as="sourcePoint" />
            <mxPoint x="1510" y="460" as="targetPoint" />
          </mxGeometry>
        </mxCell>
        <mxCell id="mLVLps4qV9vhMzDSU-DL-97" value="" style="endArrow=open;endFill=1;endSize=12;html=1;rounded=0;exitX=0.999;exitY=0.394;exitDx=0;exitDy=0;exitPerimeter=0;" edge="1" parent="WIyWlLk6GJQsqaUBKTNV-1" source="mLVLps4qV9vhMzDSU-DL-75">
          <mxGeometry width="160" relative="1" as="geometry">
            <mxPoint x="1270" y="450" as="sourcePoint" />
            <mxPoint x="1950" y="359" as="targetPoint" />
          </mxGeometry>
        </mxCell>
      </root>
    </mxGraphModel>
  </diagram>
</mxfile>
